<svg width="360" height="360" viewBox="0 0 360 360" fill="none" xmlns="http://www.w3.org/2000/svg">
<path fill-rule="evenodd" clip-rule="evenodd" d="M89.762 74.4796C88.807 75.0366 87.59 76.3046 87.059 77.2976C86.527 78.2896 84.037 93.6836 81.525 111.505C79.013 129.326 76.712 144.695 76.411 145.658C74.895 150.515 73.302 150.131 40.427 136.98C23.141 130.065 7.717 124.407 6.153 124.407C3.132 124.407 0 127.051 0 129.601C0 132.55 4.101 136.269 28.778 155.693C42.444 166.45 54.237 175.988 54.985 176.889C55.946 178.047 56.074 179.223 55.422 180.907C54.904 182.245 42.909 192.42 28.022 204.15C6.662 220.981 1.368 225.627 0.633 228.19C-0.407 231.816 0.863 234.024 4.864 235.545C6.888 236.315 12.694 234.315 38.552 223.941C55.735 217.047 70.686 211.407 71.775 211.407C72.864 211.407 74.274 212.032 74.908 212.796C75.542 213.561 78.089 229.415 80.568 248.028C83.399 269.294 85.622 282.708 86.55 284.123C89.581 288.75 96.706 287.595 99.015 282.104C99.522 280.896 101.795 265.507 104.064 247.907C106.559 228.559 108.755 215.017 109.618 213.657C110.403 212.42 111.942 211.407 113.037 211.407C114.132 211.407 128.409 216.872 144.764 223.551C170.353 234.001 175.267 235.695 180 235.695C184.729 235.694 189.673 233.993 215.279 223.551C231.658 216.872 245.935 211.407 247.006 211.407C248.077 211.407 249.596 212.419 250.381 213.657C251.242 215.014 253.454 228.614 255.953 247.907C258.233 265.507 260.505 280.896 261.003 282.104C263.265 287.59 270.418 288.751 273.45 284.123C274.378 282.708 276.601 269.294 279.432 248.028C281.911 229.415 284.458 213.561 285.092 212.796C285.726 212.032 287.157 211.407 288.272 211.407C289.387 211.407 304.336 217.048 321.491 223.943C347.337 234.33 353.102 236.319 355.132 235.547C359.152 234.019 360.408 231.821 359.357 228.155C358.608 225.546 353.462 221.023 331.968 204.087C317.41 192.616 305.113 182.547 304.639 181.71C304.138 180.824 304.205 179.251 304.802 177.943C305.364 176.708 317.118 166.811 330.92 155.95C356.135 136.108 360 132.583 360 129.427C360 126.964 356.777 124.407 353.673 124.407C352.204 124.407 336.859 130.065 319.573 136.98C286.703 150.129 285.085 150.519 283.601 145.658C283.306 144.695 280.999 129.282 278.473 111.407C275.814 92.5886 273.285 77.9916 272.467 76.7326C269.525 72.2066 264.206 72.9246 262.194 78.1186C261.6 79.6516 259.278 94.4066 257.033 110.907C252.046 147.564 252.333 146.143 249.536 147.975C247.384 149.386 245.36 148.724 215.803 136.941C192.422 127.621 183.241 124.407 180 124.407C176.759 124.407 167.578 127.621 144.197 136.941C114.64 148.724 112.616 149.386 110.464 147.975C107.674 146.147 107.959 147.548 103.019 111.407C98.288 76.7996 98.505 77.9116 95.975 75.3816C93.78 73.1866 92.341 72.9776 89.762 74.4796ZM207.035 157.977C219.94 168.19 230.886 177.24 231.36 178.086C231.858 178.975 231.809 180.532 231.244 181.771C230.706 182.951 219.769 192.004 206.94 201.889C186.594 217.564 183.151 219.862 180 219.862C176.849 219.862 173.406 217.564 153.06 201.889C140.231 192.004 129.294 182.951 128.756 181.771C128.191 180.532 128.142 178.975 128.64 178.086C129.114 177.24 140.06 168.19 152.965 157.977C173.491 141.733 176.877 139.407 180 139.407C183.123 139.407 186.509 141.733 207.035 157.977Z" fill="#FAF9F8"/>
</svg>
