<svg width="74" height="44" viewBox="0 0 74 44" fill="none" xmlns="http://www.w3.org/2000/svg">
<path d="M10.4425 29.255L10.4057 29.2645C10.2401 29.3071 10.0771 29.2964 9.91692 29.2329C9.62567 29.1176 9.43015 28.8661 9.33044 28.4785C9.29878 28.3555 9.28246 28.2285 9.28149 28.0976C9.27576 27.1349 9.36462 26.1839 9.54803 25.2447C9.99348 22.3753 10.6182 19.5417 11.4221 16.744C11.807 15.4185 12.2573 14.1187 12.7732 12.8447C12.8032 12.7583 12.8157 12.6796 12.8106 12.6088L12.6031 12.9081C11.8293 13.9927 11.0351 15.2399 10.2207 16.6498C9.80519 17.3732 9.17914 18.4985 8.34256 20.0255C7.96564 20.7719 7.52233 21.4762 7.01263 22.1387C6.82861 22.3893 6.59425 22.5841 6.30952 22.7229C6.23294 22.7558 6.15785 22.7816 6.08425 22.8006C5.82664 22.8669 5.58298 22.8476 5.35327 22.7427C4.98328 22.5755 4.72943 22.2243 4.59173 21.6891C4.53158 21.4553 4.49597 21.2153 4.48489 20.9689C4.44297 19.8909 4.51014 18.8176 4.68645 17.749C4.71813 17.4654 4.7567 17.1832 4.80222 16.9026L4.74226 16.8983C4.53134 17.4511 4.32428 18.0061 4.12106 18.5635C3.35669 20.7016 2.70937 22.8752 2.17906 25.0843C2.07161 25.5055 1.95418 25.926 1.82675 26.3458L1.68518 26.8249C1.62819 27.0101 1.59425 27.196 1.58337 27.3824C1.57862 27.5673 1.52371 27.7224 1.41864 27.8479C1.31971 27.9717 1.19357 28.0533 1.04023 28.0928L0.975825 28.1094C0.601277 28.1533 0.328928 27.997 0.158774 27.6407L0.109211 27.4862C0.05223 27.2647 0.053622 27.0414 0.113377 26.8161C0.410786 25.3032 0.760528 23.803 1.16261 22.3156C2.018 19.2095 3.11993 16.1974 4.46839 13.2793C5.29647 11.4396 5.94971 10.4582 6.42815 10.3351C6.63055 10.2831 6.8574 10.3133 7.10869 10.4257C7.35837 10.532 7.51646 10.7143 7.58293 10.9727C7.60826 11.0711 7.61905 11.1766 7.61529 11.289C7.58817 11.7683 7.51565 12.2362 7.39771 12.6929L7.20152 13.5698C6.86197 14.9953 6.58316 16.428 6.36511 17.868C6.26142 18.5834 6.19155 19.3032 6.15554 20.0274C6.1486 20.1276 6.14495 20.2532 6.14455 20.4041C6.25891 20.2894 6.3441 20.1757 6.40008 20.0629L6.43184 19.9957C6.76385 19.4052 7.0943 18.8086 7.42314 18.2058C9.63964 14.0609 11.8557 10.7785 14.0714 8.35881C14.3045 8.09551 14.5585 7.86289 14.8336 7.66095C14.9603 7.56931 15.0973 7.50454 15.2447 7.46663C15.5207 7.39561 15.7627 7.42189 15.9711 7.54537C16.1841 7.66111 16.3221 7.84206 16.3854 8.08813C16.4154 8.20502 16.4258 8.33353 16.4161 8.47377C16.3707 8.78062 16.2792 9.07307 16.1414 9.35122L15.5749 10.6186C15.2257 11.3709 14.888 12.1301 14.5619 12.8961C13.5104 15.4689 12.6908 18.1164 12.1029 20.8388C11.7103 22.5665 11.3808 24.3107 11.1145 26.0715C10.9789 26.841 10.9372 27.6191 10.9892 28.4059C11.0001 28.8295 10.8178 29.1125 10.4425 29.255ZM23.2451 18.2968C23.2987 18.2764 23.3499 18.26 23.3991 18.2473C23.8713 18.1258 24.1527 18.2404 24.2429 18.591C24.2904 18.7756 24.2853 19.0229 24.2276 19.3329C23.9123 19.6829 23.5961 20.0299 23.2792 20.3738C22.7733 20.95 22.166 21.385 21.4567 21.679C21.3619 21.7165 21.2653 21.7479 21.1672 21.7732C20.9708 21.8237 20.7706 21.8457 20.5662 21.8392C19.7575 21.7718 19.2177 21.2876 18.9467 20.3866L18.8185 19.8883L18.8 19.893C18.7815 19.8978 18.7701 19.904 18.7656 19.9117C18.7519 19.9349 18.7374 19.955 18.7223 19.972C18.7148 19.9937 18.7063 20.0122 18.6972 20.0277C18.2353 20.6975 17.7215 21.3315 17.156 21.9295C16.9869 22.1108 16.7937 22.2622 16.5764 22.3836C16.483 22.4274 16.3934 22.4603 16.3075 22.4824C16.0928 22.5376 15.8869 22.525 15.6896 22.4446C15.4138 22.3384 15.2139 22.1209 15.0901 21.792L15.0782 21.7459C14.9943 21.4198 14.9772 21.0865 15.0269 20.7457C15.1235 19.6977 15.4295 18.7138 15.9449 17.7941L15.9586 17.7709C16.0735 17.5314 16.241 17.3309 16.461 17.1694C16.5467 17.1211 16.6325 17.0859 16.7184 17.0638C16.8594 17.0275 16.9924 17.0359 17.1172 17.0891C17.2945 17.1681 17.4116 17.3183 17.4686 17.5398L17.4855 17.6437C17.5682 18.0159 17.4413 18.2978 17.1048 18.4894C17.065 18.5127 17.0376 18.546 17.0225 18.5892C16.7691 19.2054 16.5964 19.8434 16.5046 20.5033C17.0301 19.9024 17.5124 19.2732 17.9515 18.6159C17.9759 18.5834 17.9971 18.5517 18.0152 18.5208C18.1218 18.3753 18.222 18.2314 18.3162 18.0891C18.5624 17.7241 18.82 17.3659 19.0894 17.0146C19.1442 16.948 19.2028 16.8837 19.2654 16.8217C19.392 16.7039 19.5198 16.6283 19.6485 16.5952C19.8142 16.5526 19.9864 16.5739 20.1652 16.6591C20.4059 16.7808 20.5539 16.9493 20.6093 17.1647C20.6346 17.2631 20.64 17.3732 20.6256 17.495C20.586 17.7479 20.5287 17.9954 20.4536 18.2377C20.4103 18.3997 20.3701 18.561 20.333 18.7214C20.2163 19.1581 20.2128 19.5886 20.322 20.0131L20.341 20.0869C20.3959 20.2498 20.4612 20.3511 20.5368 20.3907C20.6108 20.4241 20.7092 20.425 20.8319 20.3935L20.9054 20.3746C21.4262 20.1618 21.8708 19.8441 22.2396 19.4213C22.5823 19.0511 22.9176 18.6762 23.2451 18.2968ZM23.5166 21.2769C23.3817 21.3116 23.2425 21.3048 23.0993 21.2564C22.8712 21.1577 22.7287 20.9975 22.6717 20.7761C22.6258 20.5977 22.6739 20.1622 22.8162 19.4697L22.8826 19.1181C23.0706 17.9678 23.3378 16.8332 23.6844 15.7143C23.771 15.3903 23.9371 15.1967 24.1825 15.1336C24.2804 15.1084 24.3849 15.1077 24.4958 15.1317C24.7436 15.2056 24.8993 15.3656 24.9626 15.6117C24.9705 15.6425 24.9746 15.6709 24.9747 15.6971C24.9751 15.7233 24.9782 15.7487 24.9845 15.7733C24.9908 15.7979 25.0034 15.8209 25.022 15.8424C25.2006 15.6981 25.3821 15.6022 25.566 15.5549C25.9217 15.4633 26.3393 15.5231 26.8187 15.7343L27.0152 15.8117C27.7677 16.169 28.515 16.2522 29.2572 16.0613C29.7846 15.9256 30.265 15.6446 30.6981 15.2183L30.9177 15.0044C31.0367 14.8819 31.1548 14.7696 31.2723 14.6672C31.3883 14.5586 31.5046 14.4893 31.6211 14.4594C31.8052 14.412 31.9783 14.4494 32.1406 14.5717C32.258 14.6727 32.3334 14.7877 32.3666 14.9169C32.4093 15.083 32.377 15.2619 32.2692 15.4536C31.6424 16.4741 30.777 17.1264 29.673 17.4104C29.2743 17.513 28.8537 17.5687 28.4114 17.5776C27.7321 17.5556 27.0848 17.404 26.4698 17.1228L26.2385 17.0249C26.1027 16.9549 26.0011 16.9285 25.9337 16.9459C25.8907 16.9569 25.8503 16.9903 25.8124 17.046C25.7727 17.0955 25.7181 17.1752 25.6483 17.285L25.5732 17.4125C24.9753 18.419 24.4909 19.4848 24.1199 20.6101C23.9938 20.9836 23.7926 21.2059 23.5166 21.2769ZM42.2371 20.3959C41.9121 20.4795 41.5826 20.4691 41.2484 20.3649C40.617 20.1732 40.0736 19.6374 39.6184 18.7575C39.2864 18.128 39.019 17.4196 38.8164 16.6321C38.7373 16.3245 38.6714 16.0168 38.6183 15.7091L38.5653 15.4275C38.1298 16.1234 37.6982 16.6706 37.271 17.0691C37.0545 17.2691 36.8084 17.4308 36.5328 17.5542C36.4622 17.5854 36.3934 17.6097 36.3259 17.6271C36.0314 17.7029 35.7509 17.6799 35.4841 17.5583C35.2174 17.4367 35.0077 17.2316 34.8549 16.943C34.7581 16.7449 34.6812 16.5351 34.6243 16.3136L34.5623 16.0344C34.4877 16.1257 34.4248 16.2239 34.3733 16.329L34.0633 16.8023C33.7708 17.317 33.4179 17.7882 33.0047 18.2159C32.822 18.4204 32.6079 18.5542 32.3624 18.6173C32.2766 18.6394 32.1914 18.6515 32.1069 18.6535C31.6121 18.6365 31.3077 18.4066 31.1937 17.9637C31.1731 17.8837 31.1602 17.7952 31.1548 17.6982C31.0708 15.9226 31.5835 14.4461 32.6933 13.2685C32.8487 13.1105 33.0063 13.0109 33.1657 12.9699C33.3743 12.9162 33.5788 12.9489 33.7795 13.0678C33.9694 13.196 34.102 13.3685 34.1774 13.5852L34.2334 13.6889C34.3034 13.579 34.3733 13.4823 34.4433 13.3988C34.5772 13.2331 34.727 13.129 34.8927 13.0864C35.0276 13.0517 35.1629 13.0562 35.2984 13.1001C35.5526 13.1986 35.7138 13.3802 35.7818 13.6447C35.7977 13.7062 35.8083 13.7724 35.8132 13.8432C35.8243 14.4963 35.8778 15.1483 35.9734 15.7993C35.9955 15.8854 36.0081 15.9477 36.0116 15.9862C36.0133 16.0185 36.0174 16.047 36.0237 16.0716C36.0427 16.1454 36.0797 16.1753 36.1349 16.1611C36.1841 16.1484 36.2467 16.0995 36.3228 16.0144L36.3365 15.9911C36.9081 15.3915 37.384 14.7247 37.7641 13.9906L38.0549 13.4436C38.1185 13.3091 38.1882 13.1731 38.2639 13.0356C38.3397 12.898 38.3731 12.7484 38.3642 12.5867C38.3655 9.69387 38.8452 6.88122 39.8032 4.14885C40.1564 3.10693 40.6398 2.12659 41.2536 1.20781C41.46 0.866108 41.7237 0.568719 42.0443 0.31569C42.1818 0.214709 42.3211 0.146087 42.4622 0.109776C42.8242 0.0166477 43.1429 0.124853 43.4188 0.434295C43.501 0.550881 43.5604 0.679918 43.5968 0.82141C43.6253 0.932144 43.6423 1.0491 43.6479 1.17229C43.6416 1.75767 43.5575 2.33354 43.3958 2.89987L43.3781 2.98314C42.9097 4.84834 42.3428 6.68645 41.6774 8.49739C41.1451 10.038 40.5328 11.5467 39.8401 13.0236C39.8023 13.1055 39.7839 13.1988 39.7846 13.3035C39.8045 14.2954 39.9371 15.2681 40.1824 16.2216C40.4784 17.372 40.8557 18.2162 41.3145 18.7541C41.4838 18.9794 41.6818 19.0629 41.9087 19.0045C42.0314 18.973 42.1869 18.9035 42.375 18.796C42.4835 18.7353 42.5717 18.6962 42.6392 18.6789C42.8967 18.6126 43.1215 18.686 43.3137 18.8988C43.3666 18.9771 43.4032 19.0562 43.4238 19.1362C43.4776 19.3453 43.4223 19.5498 43.258 19.7495C42.9455 20.0857 42.6053 20.3012 42.2371 20.3959ZM40.17 8.47201C40.8506 6.64402 41.4359 4.78809 41.9256 2.90427C41.7234 3.18585 41.4867 3.68948 41.2156 4.41515C40.9506 5.13922 40.7159 5.89158 40.5113 6.67227C40.3052 7.44682 40.1914 8.04674 40.17 8.47201ZM32.7295 16.2698C33.1077 15.6806 33.4758 15.0644 33.8335 14.4215L33.7759 14.4264C33.7207 14.4406 33.6791 14.4448 33.6515 14.4388C33.5946 14.4206 33.5445 14.4171 33.5017 14.4281C33.4525 14.4408 33.4083 14.4718 33.3686 14.5214C33.3337 14.5632 33.3011 14.6142 33.2708 14.6745C33.0254 15.1442 32.8409 15.6345 32.7172 16.1451C32.7187 16.1512 32.7151 16.162 32.7058 16.1775C32.6951 16.1868 32.6931 16.2038 32.6994 16.2284C32.7026 16.2407 32.7126 16.2545 32.7295 16.2698ZM43.9162 19.6195L43.7321 19.6668C43.5237 19.7205 43.3133 19.7287 43.101 19.6915C42.8887 19.6543 42.7097 19.5692 42.5644 19.436C42.419 19.3029 42.3225 19.144 42.275 18.9595C42.2402 18.8242 42.2329 18.6817 42.2533 18.5322C42.3436 18.0695 42.5448 17.657 42.857 17.2946C43.35 16.6693 43.898 16.0921 44.501 15.5631C44.6032 15.4778 44.6393 15.3767 44.6092 15.2598L44.5763 15.1699C44.2498 14.4602 43.8438 13.7973 43.3584 13.181C43.1163 12.8497 42.9547 12.5273 42.874 12.2135C42.768 11.8013 42.7696 11.4139 42.8792 11.0512C42.993 10.6809 43.1695 10.3502 43.4086 10.0591C43.6537 9.76643 43.9231 9.52985 44.2166 9.3494C44.5103 9.1689 44.8104 9.03922 45.1172 8.96029C45.4914 8.86401 45.8808 8.85237 46.2853 8.92539C46.5485 8.98231 46.7667 9.09342 46.94 9.25871C47.1133 9.42401 47.2301 9.62352 47.2903 9.85729C47.3251 9.99264 47.3384 10.1335 47.3303 10.2799C47.2771 10.9626 47.0421 11.574 46.6252 12.1142C46.5263 12.238 46.4092 12.3173 46.2743 12.352C46.1272 12.3899 45.974 12.367 45.8152 12.2832C45.6609 12.1917 45.5631 12.0661 45.5219 11.9061C45.4919 11.7892 45.4993 11.666 45.5445 11.5363C45.5897 11.4066 45.6447 11.2776 45.7098 11.1494C45.8172 10.9315 45.8933 10.7054 45.9374 10.471C45.9464 10.4294 45.9477 10.3962 45.9414 10.3716C45.9287 10.3224 45.874 10.3004 45.7771 10.3056C45.6789 10.3047 45.5745 10.3184 45.4641 10.3468C45.2125 10.4115 44.9762 10.5347 44.7547 10.7163C44.5335 10.8978 44.3775 11.1052 44.287 11.3384C44.2224 11.519 44.2113 11.6924 44.2541 11.8585C44.2873 11.9876 44.3506 12.1189 44.4438 12.2524C44.537 12.3858 44.634 12.5215 44.7348 12.6596C44.929 12.931 45.1154 13.211 45.2942 13.4995L45.4017 13.6883C45.5138 13.8694 45.6172 14.0559 45.7124 14.2479C45.75 14.3432 45.7934 14.3845 45.8425 14.3718C45.867 14.3655 45.9006 14.3438 45.9434 14.3065C46.5053 13.8471 47.0757 13.3954 47.6546 12.9513C48.8049 12.0584 50.0018 11.2455 51.2454 10.5123C51.5128 10.332 51.8029 10.2016 52.1159 10.121C52.4286 10.0406 52.6774 10.1307 52.8622 10.3914C52.8979 10.4544 52.9246 10.5197 52.942 10.5874C53.0053 10.8334 52.9202 11.0619 52.6868 11.2728C52.5126 11.4095 52.3285 11.5323 52.1341 11.6413C50.5479 12.5676 49.0173 13.6337 47.5422 14.8397C47.2918 15.0353 47.0427 15.2371 46.7955 15.445L46.4221 15.7477C46.2937 15.8332 46.2316 15.9607 46.236 16.1301C46.1952 17.6492 45.5046 18.7779 44.1643 19.5163L44.0518 19.5748C44.0028 19.5874 43.9576 19.6023 43.9162 19.6195Z" fill="#FAF9F8"/>
<path d="M4.18412 36.4427C3.8898 36.5184 3.64781 36.4298 3.45852 36.1766C3.38712 36.0771 3.33554 35.9657 3.30388 35.8426C3.14878 35.2398 3.31785 34.7405 3.81106 34.3446C3.89975 34.2825 3.99014 34.2395 4.08209 34.2158C4.16801 34.1937 4.25467 34.1877 4.3423 34.198C4.65306 34.2362 4.84544 34.3999 4.91984 34.689C4.98154 34.9288 4.90176 35.1396 4.68031 35.3213C4.62233 35.3755 4.59298 35.4519 4.59222 35.5505C4.68169 35.9997 4.54565 36.2971 4.18412 36.4427ZM4.96748 42.8427C4.57965 42.936 4.2132 42.9352 3.86832 42.8402C3.24922 42.6452 2.85739 42.228 2.69276 41.5881C2.64846 41.4159 2.6113 41.0942 2.58169 40.6231C2.52656 38.8073 2.92531 37.7897 3.77775 37.5704C4.10901 37.4852 4.38521 37.5288 4.60608 37.7017C4.77167 37.8362 4.87482 37.9833 4.91601 38.1434C4.97615 38.3772 4.85299 38.7629 4.54682 39.3009L4.31976 39.7528C4.11378 40.1469 4.01872 40.5911 4.03482 41.0855L4.06356 41.2354C4.08573 41.3216 4.11762 41.3823 4.15942 41.4175C4.27384 41.5061 4.49969 41.5071 4.83697 41.4203C5.2664 41.3098 5.66519 41.1185 6.03341 40.8467C6.44459 40.5638 7.06798 40.0133 7.90368 39.1948L8.05813 39.1845C8.48062 39.1743 8.72505 39.2982 8.79152 39.5566C8.8026 39.5996 8.80825 39.6474 8.80869 39.6998C8.81785 39.8877 8.35465 40.4135 7.41932 41.2773C6.49017 42.1394 5.67295 42.6612 4.96748 42.8427ZM8.21651 42.4495C8.01414 42.5015 7.81968 42.4828 7.63305 42.393C7.35872 42.267 7.17703 42.0316 7.08839 41.6871C7.02664 41.4471 7.01348 41.2047 7.04845 40.9595C7.14561 40.1932 7.3236 39.449 7.58227 38.7264C7.7939 38.0489 8.0674 37.3457 8.40314 36.6165C8.47219 36.4281 8.58784 36.2803 8.74991 36.1731C8.80657 36.1388 8.86242 36.1145 8.91762 36.1003C9.08325 36.0577 9.23941 36.0798 9.38595 36.1668C9.53711 36.246 9.63495 36.3717 9.67925 36.5439L9.68873 36.5808C9.75375 36.8592 9.70348 37.1214 9.53792 37.3673C9.45905 37.4926 9.39938 37.6292 9.35897 37.7775L8.89539 39.2544C8.88946 39.2821 8.87877 39.3046 8.86366 39.3216C8.85457 39.337 8.85073 39.3479 8.85234 39.3541L9.45723 38.5787C9.78849 38.0867 10.1614 37.63 10.5761 37.2084C10.8126 36.9837 11.0351 36.8445 11.2437 36.7908C11.4951 36.7261 11.7258 36.7585 11.9357 36.8882C12.1501 37.0102 12.3031 37.2102 12.3943 37.4884L12.6218 38.3351C12.7135 38.6656 12.9013 38.9255 13.1854 39.1148C13.4094 39.2738 13.6288 39.3255 13.8434 39.2703C13.9601 39.2403 14.0808 39.1764 14.2061 39.0785C14.8764 38.5322 15.5429 37.7541 16.2049 36.7441L16.5765 36.2058C16.7574 35.9429 16.9461 35.7861 17.1422 35.7356C17.3079 35.693 17.4694 35.7236 17.6269 35.8273C17.7828 35.9249 17.8798 36.0476 17.9178 36.1952C17.9891 36.472 17.8142 36.9106 17.3931 37.5109C16.8297 38.397 16.1675 39.2035 15.4064 39.9307C15.0831 40.25 14.7014 40.4826 14.2616 40.6286C13.7832 40.7517 13.3113 40.7222 12.8458 40.5403C12.0815 40.2384 11.5571 39.6486 11.2724 38.7708C11.2518 38.6908 11.223 38.6555 11.1863 38.665C11.1618 38.6713 11.1328 38.6985 11.0993 38.7464C10.623 39.361 10.1831 40.0021 9.77955 40.6701C9.43018 41.219 9.1515 41.635 8.94313 41.9184C8.71022 42.2078 8.46806 42.3847 8.21651 42.4495Z" fill="#FAF9F8"/>
<path d="M32.2594 39.6614C32.1797 39.6819 32.0938 39.6909 32.0015 39.6885C31.6879 39.6642 31.4654 39.5115 31.3344 39.2304L31.3157 39.1958C31.2845 39.1252 31.2403 39.0808 31.1832 39.0626C30.7324 38.9622 30.3498 38.6572 30.0355 38.1477C29.6526 37.4723 29.3629 36.7532 29.1667 35.9904L29.0055 35.4022C28.3676 32.9229 28.08 30.2292 28.1426 27.3204C28.1634 26.2066 28.2095 25.0895 28.2809 23.9693L28.334 23.0701C28.3229 23.0271 28.3157 22.9863 28.3124 22.9478C28.0232 23.501 27.7768 24.0432 27.5733 24.5744C26.6839 26.8365 25.9931 29.159 25.501 31.5419C25.0366 33.7276 24.7245 35.933 24.5645 38.1584C24.5638 38.2569 24.5722 38.353 24.5898 38.4471C24.6216 38.7995 24.4853 39.0577 24.1808 39.2212L24.0636 39.2613C23.806 39.3275 23.5649 39.255 23.3407 39.0439C23.2168 38.9184 23.1342 38.7756 23.093 38.6155C23.0678 38.5173 23.0579 38.4148 23.0631 38.3085C23.062 35.1014 23.6644 31.4569 24.8704 27.3752C25.3762 25.5791 26.0423 23.8467 26.8685 22.178C27.1135 21.6558 27.4241 21.1725 27.8002 20.7281C28.0118 20.4835 28.2497 20.3272 28.5133 20.2593C28.7096 20.2088 28.9164 20.2245 29.1337 20.3063C29.3571 20.3866 29.5253 20.5073 29.6389 20.6683C29.7506 20.8232 29.8326 21.0021 29.8849 21.2051L29.9184 21.3736C30.003 22.0078 30.0162 22.6439 29.9581 23.2819L29.9464 23.5801C29.8591 24.8422 29.8011 26.1034 29.7722 27.3636C29.7478 28.6161 29.7935 29.8736 29.909 31.1358C30.0229 32.3923 30.2365 33.6293 30.5499 34.8475C30.7097 35.4687 30.9035 36.0813 31.1308 36.6854C31.2199 36.905 31.2988 37.0717 31.3673 37.1853C31.3911 37.2775 31.4351 37.322 31.4997 37.3185C31.5486 37.3059 31.5707 37.2641 31.5655 37.1933L31.5769 37.161C31.8559 35.856 32.0453 34.9907 32.1449 34.5649L32.339 33.718C32.666 32.2434 33.0106 30.7741 33.3728 29.3101C33.7335 27.8399 34.1436 26.3832 34.6028 24.9401C35.0781 23.3814 35.6714 21.8743 36.3824 20.4189C36.558 20.0589 36.7898 19.8418 37.0781 19.7677C37.2253 19.7298 37.3951 19.7287 37.5874 19.7645C37.9168 19.8503 38.1179 20.0347 38.1907 20.3177L38.2026 20.3638C38.2482 20.6932 38.1195 20.9427 37.8165 21.1125C37.6834 21.1795 37.5967 21.3134 37.5569 21.5138C36.9164 23.1675 36.3382 24.8477 35.8226 26.5546C35.1728 28.8075 34.5969 31.0808 34.0949 33.3746C33.6795 35.1408 33.2919 36.9132 32.9319 38.6915C32.9013 38.9027 32.8352 39.1032 32.7336 39.2934C32.6138 39.4882 32.4557 39.6109 32.2594 39.6614ZM42.2784 38.5495C41.8737 38.6537 41.5192 38.6105 41.215 38.4197C40.9111 38.2292 40.7122 37.9523 40.6189 37.5894C40.5745 37.4171 40.5594 37.2308 40.5731 37.0306C40.6056 36.6483 40.6927 36.2881 40.8347 35.9498C40.9827 35.61 41.156 35.2801 41.3549 34.96C42.2249 33.5884 43.272 32.3712 44.4963 31.3085C44.8593 30.9658 45.1221 30.5637 45.2844 30.102C45.6638 29.06 46.05 28.0195 46.4432 26.9804L47.4167 24.3587C48.0822 22.5477 48.7113 20.7232 49.3043 18.8849L48.604 19.8227C47.6414 21.1395 46.7189 22.4852 45.8367 23.8601C45.015 25.1406 44.4057 26.0385 44.0087 26.5539C43.4016 27.3464 42.8742 27.8001 42.4265 27.9153C42.2669 27.9563 42.095 27.9613 41.9104 27.9302C41.3841 27.8163 41.056 27.507 40.9262 27.0026C40.8233 26.6027 40.7737 26.245 40.7776 25.9292C40.7858 25.6057 40.811 25.2843 40.8532 24.9652C41.1567 22.6111 41.782 20.3776 42.7294 18.2645C42.8122 18.053 42.9053 17.8552 43.0083 17.6713C43.1709 17.413 43.3654 17.2547 43.5924 17.1963C43.8071 17.1411 44.0233 17.1806 44.2409 17.3148C44.3399 17.3943 44.4493 17.5531 44.5694 17.7911C44.6879 18.0229 44.7726 18.2373 44.8232 18.4341C44.8501 18.5387 44.8623 18.6242 44.8596 18.6904C44.8038 19.0327 44.6196 19.2441 44.3068 19.3246C44.2086 19.3498 44.1397 19.3741 44.0999 19.3975C44.0585 19.4147 44.0265 19.4557 44.004 19.5205C43.636 20.6319 43.3786 21.436 43.2318 21.9329C42.9785 22.7786 42.8013 23.526 42.7002 24.1752C42.6083 24.6317 42.5643 25.1087 42.5681 25.6062L43.0903 24.8913L44.093 23.374C44.6747 22.4832 45.2649 21.6 45.8637 20.7245C47.1369 18.8358 48.506 17.0275 49.9711 15.2994C50.2632 14.9094 50.6474 14.6367 51.1242 14.4812C51.3755 14.4166 51.5963 14.4352 51.7859 14.5373C51.9741 14.6332 52.0998 14.8042 52.1631 15.0502C52.2217 15.2778 52.2219 15.5074 52.1637 15.7388C51.8802 16.8481 51.5365 17.94 51.1329 19.0146L50.799 19.9663C50.1208 21.9051 49.4285 23.8411 48.7227 25.7741C48.5527 26.2573 48.2523 27.0724 47.8214 28.2196C47.7761 28.3231 47.7378 28.4281 47.7064 28.5345L48.454 28.0469C49.3222 27.4563 50.0999 26.9839 50.787 26.6301C51.2616 26.3899 51.7625 26.202 52.2899 26.0663C52.6089 25.9842 52.9244 25.9391 53.2361 25.9312C53.6712 25.97 53.9331 26.1617 54.0217 26.5063L54.036 26.5616C54.0991 26.9849 53.9309 27.2838 53.5312 27.459C53.3335 27.5294 53.1343 27.5938 52.9334 27.6521C52.0368 27.9287 51.1954 28.3189 50.4095 28.8229C49.8651 29.1727 49.3317 29.5397 48.8092 29.9234C47.2828 31.0572 46.461 31.7901 46.3437 32.1219C45.8695 33.4311 45.3132 34.7123 44.6743 35.9655C44.4758 36.338 44.2611 36.6981 44.0302 37.0462C43.7993 37.3942 43.5252 37.714 43.2077 38.0056C42.9439 38.2768 42.6342 38.458 42.2784 38.5495ZM61.0687 32.8297L60.551 32.953C58.5204 33.2196 56.8442 32.7032 55.5222 31.4036C54.8613 30.7407 54.3977 29.8924 54.1318 28.8588L54.0722 28.5888C53.8083 27.2072 53.8079 25.8202 54.0707 24.4275C54.496 21.9373 55.2902 19.5716 56.4533 17.3309C57.4829 15.3344 58.7917 13.7744 60.3796 12.6509C61.2675 12.0355 62.1562 11.6134 63.0456 11.3846C63.3953 11.2946 63.7551 11.2315 64.1251 11.1953C64.6793 11.138 65.2152 11.2133 65.733 11.4212C66.4144 11.7312 66.8415 12.2215 67.014 12.892C67.0742 13.1258 67.0998 13.3783 67.0912 13.6494C67.0408 14.5216 66.8336 15.3555 66.4693 16.151C65.9612 17.4297 65.2794 18.6053 64.4241 19.6779C64.2383 19.8964 64.0401 20.1047 63.8296 20.3031C63.6893 20.4442 63.5271 20.5383 63.3432 20.5857C63.2633 20.6062 63.1813 20.6177 63.0968 20.6196C62.728 20.6096 62.4831 20.4201 62.3619 20.0511C62.3271 19.9158 62.3292 19.7841 62.3681 19.656C62.4118 19.5202 62.4953 19.4133 62.6194 19.3356C62.8943 19.1337 63.116 18.8897 63.2845 18.6036C63.7157 17.9417 64.11 17.2631 64.4675 16.5677C64.8294 15.8646 65.1173 15.128 65.3312 14.358C65.4435 13.9815 65.4716 13.6332 65.4154 13.3132C65.36 13.0979 65.2138 12.9617 64.9767 12.9046C64.7459 12.8459 64.5153 12.8266 64.285 12.8465C64.0593 12.8586 63.8329 12.8939 63.606 12.9523L63.4127 13.002C61.8628 13.4598 60.5103 14.4178 59.3552 15.8759C58.3491 17.1252 57.5149 18.6615 56.8527 20.4846C56.3237 21.8605 55.9374 23.2815 55.6933 24.748C55.5844 25.3663 55.5244 25.9852 55.5138 26.6046C55.5091 27.2221 55.586 27.8387 55.7443 28.4538C56.0022 29.4304 56.4677 30.1599 57.1414 30.6427C57.8194 31.1174 58.6147 31.3621 59.5274 31.3766C59.927 31.3787 60.3106 31.3324 60.6786 31.2377C61.2245 31.0973 61.8035 30.8435 62.4151 30.4762C64.9345 28.982 67.013 27.0206 68.651 24.5921L69.3846 23.4785C69.8099 22.8444 70.0926 22.4305 70.2325 22.2372C70.3707 22.0376 70.5288 21.9149 70.7067 21.8691C70.8723 21.8265 71.0469 21.8569 71.2307 21.9606C71.4127 22.058 71.5273 22.1992 71.5748 22.3836C71.6175 22.5498 71.6013 22.7278 71.526 22.9177C70.9817 23.9038 70.5449 24.6589 70.2155 25.1831C69.8922 25.7058 69.5928 26.1437 69.3175 26.4964C67.8281 28.4603 66.0491 30.1119 63.9804 31.4509C63.528 31.7509 63.0613 32.0219 62.5809 32.2635C62.1003 32.5053 61.5961 32.694 61.0687 32.8297Z" fill="#FAF9F8"/>
</svg>
