<svg width="360" height="360" viewBox="0 0 360 360" fill="none" xmlns="http://www.w3.org/2000/svg">
<g clip-path="url(#clip0_818_321)">
<path d="M240.083 111.333H230.642C228.649 101.646 223.379 92.9422 215.717 86.6882C208.056 80.4341 198.473 77.0125 188.583 77L171.417 77C161.527 77.0125 151.944 80.4341 144.283 86.6882C136.621 92.9422 131.35 101.646 129.358 111.333H119.917C108.539 111.347 97.6305 115.873 89.5851 123.918C81.5396 131.964 77.0136 142.872 77 154.25V180H283V154.25C282.986 142.872 278.46 131.964 270.415 123.918C262.369 115.873 251.461 111.347 240.083 111.333V111.333ZM147.246 111.333C149.015 106.33 152.286 101.995 156.613 98.9226C160.94 95.8497 166.11 94.1887 171.417 94.1667H188.583C193.89 94.1887 199.06 95.8497 203.387 98.9226C207.714 101.995 210.985 106.33 212.754 111.333H147.246Z" fill="#FAF9F8"/>
<path d="M188.583 205.749C188.583 208.026 187.679 210.209 186.069 211.819C184.46 213.428 182.276 214.333 180 214.333C177.723 214.333 175.54 213.428 173.931 211.819C172.321 210.209 171.417 208.026 171.417 205.749V197.166H76.9999V240.082C77.0135 251.46 81.5394 262.369 89.5849 270.414C97.6304 278.459 108.539 282.985 119.917 282.999H240.083C251.461 282.985 262.369 278.459 270.415 270.414C278.46 262.369 282.986 251.46 283 240.082V197.166H188.583V205.749Z" fill="#FAF9F8"/>
</g>
<defs>
<clipPath id="clip0_818_321">
<rect width="206" height="206" fill="white" transform="translate(77 77)"/>
</clipPath>
</defs>
</svg>
